<?xml version="1.0" encoding="UTF-8" standalone="no"?>
<svg
   width="18"
   height="19"
   fill="none"
   viewBox="0 0 18 19"
   version="1.1"
   id="svg1"
   sodipodi:docname="logo-linkedin-hvr.svg"
   inkscape:version="1.3.2 (091e20e, 2023-11-25, custom)"
   xmlns:inkscape="http://www.inkscape.org/namespaces/inkscape"
   xmlns:sodipodi="http://sodipodi.sourceforge.net/DTD/sodipodi-0.dtd"
   xmlns="http://www.w3.org/2000/svg"
   xmlns:svg="http://www.w3.org/2000/svg">
  <defs
     id="defs1" />
  <sodipodi:namedview
     id="namedview1"
     pagecolor="#ffffff"
     bordercolor="#666666"
     borderopacity="1.0"
     inkscape:showpageshadow="2"
     inkscape:pageopacity="0.0"
     inkscape:pagecheckerboard="0"
     inkscape:deskcolor="#d1d1d1"
     inkscape:zoom="60.473684"
     inkscape:cx="8.9956484"
     inkscape:cy="9.5"
     inkscape:window-width="2560"
     inkscape:window-height="1369"
     inkscape:window-x="1912"
     inkscape:window-y="-8"
     inkscape:window-maximized="1"
     inkscape:current-layer="svg1" />
  <path
     fill="#fff"
     d="M16.25.772c.664 0 1.25.586 1.25 1.289v14.961c0 .703-.586 1.25-1.25 1.25H1.21c-.663 0-1.21-.547-1.21-1.25V2.061C0 1.358.547.772 1.21.772h15.04Zm-10.977 15v-8.32H2.695v8.32h2.578ZM3.984 6.28c.82 0 1.485-.664 1.485-1.485 0-.82-.664-1.523-1.485-1.523-.859 0-1.523.703-1.523 1.523S3.125 6.28 3.984 6.28ZM15 15.772v-4.57c0-2.227-.508-3.985-3.125-3.985-1.25 0-2.11.703-2.46 1.367h-.04V7.452h-2.46v8.32h2.577V11.67c0-1.093.195-2.148 1.563-2.148 1.328 0 1.328 1.25 1.328 2.188v4.062H15Z"
     id="path1"
     style="fill:#9ba8ac;fill-opacity:1" />
</svg>
